Wavefont-wmin,rmax,amin,smin.ufo
<glyph name="_2" format="2">
	<unicode hex="0102"/>
	<unicode hex="0062"/>
	<advance width="25"/>
	<outline>
		<component base="cap"/>
		<component base="cap" yOffset="12"/>
		<contour>
			<point x="0" y="4" type="line"/>
			<point x="0" y="16" type="line"/>
			<point x="8" y="16" type="line"/>
			<point x="8" y="4" type="line"/>
		</contour>
	</outline>
</glyph>
<glyph name="_5" format="2">
	<unicode hex="0105"/>
	<advance width="25"/>
	<outline>
		<component base="cap"/>
		<component base="cap" yOffset="42"/>
		<contour>
			<point x="0" y="4" type="line"/>
			<point x="0" y="46" type="line"/>
			<point x="8" y="46" type="line"/>
			<point x="8" y="4" type="line"/>
		</contour>
	</outline>
</glyph>
<glyph name="_8" format="2">
	<unicode hex="0108"/>
	<unicode hex="0065"/>
	<advance width="25"/>
	<outline>
		<component base="cap"/>
		<component base="cap" yOffset="72"/>
		<contour>
			<point x="0" y="4" type="line"/>
			<point x="0" y="76" type="line"/>
			<point x="8" y="76" type="line"/>
			<point x="8" y="4" type="line"/>
		</contour>
	</outline>
</glyph>
<glyph name="_13" format="2">
	<unicode hex="010D"/>
	<advance width="25"/>
	<outline>
		<component base="cap"/>
		<component base="cap" yOffset="122"/>
		<contour>
			<point x="0" y="4" type="line"/>
			<point x="0" y="126" type="line"/>
			<point x="8" y="126" type="line"/>
			<point x="8" y="4" type="line"/>
		</contour>
	</outline>
</glyph>
<glyph name="_14" format="2">
	<unicode hex="010E"/>
	<unicode hex="2582"/>
	<unicode hex="0068"/>
	<advance width="25"/>
	<outline>
		<component base="cap"/>
		<component base="cap" yOffset="132"/>
		<contour>
			<point x="0" y="4" type="line"/>
			<point x="0" y="136" type="line"/>
			<point x="8" y="136" type="line"/>
			<point x="8" y="4" type="line"/>
		</contour>
	</outline>
</glyph>
<glyph name="_15" format="2">
	<unicode hex="010F"/>
	<advance width="25"/>
	<outline>
		<component base="cap"/>
		<component base="cap" yOffset="142"/>
		<contour>
			<point x="0" y="4" type="line"/>
			<point x="0" y="146" type="line"/>
			<point x="8" y="146" type="line"/>
			<point x="8" y="4" type="line"/>
		</contour>
	</outline>
</glyph>
<glyph name="_16" format="2">
	<unicode hex="0110"/>
	<unicode hex="0069"/>
	<advance width="25"/>
	<outline>
		<component base="cap"/>
		<component base="cap" yOffset="152"/>
		<contour>
			<point x="0" y="4" type="line"/>
			<point x="0" y="156" type="line"/>
			<point x="8" y="156" type="line"/>
			<point x="8" y="4" type="line"/>
		</contour>
	</outline>
</glyph>
<glyph name="_18" format="2">
	<unicode hex="0112"/>
	<unicode hex="006A"/>
	<advance width="25"/>
	<outline>
		<component base="cap"/>
		<component base="cap" yOffset="172"/>
		<contour>
			<point x="0" y="4" type="line"/>
			<point x="0" y="176" type="line"/>
			<point x="8" y="176" type="line"/>
			<point x="8" y="4" type="line"/>
		</contour>
	</outline>
</glyph>
<glyph name="_20" format="2">
	<unicode hex="0114"/>
	<unicode hex="0032"/>
	<unicode hex="006B"/>
	<advance width="25"/>
	<outline>
		<component base="cap"/>
		<component base="cap" yOffset="192"/>
		<contour>
			<point x="0" y="4" type="line"/>
			<point x="0" y="196" type="line"/>
			<point x="8" y="196" type="line"/>
			<point x="8" y="4" type="line"/>
		</contour>
	</outline>
</glyph>
<glyph name="_23" format="2">
	<unicode hex="0117"/>
	<advance width="25"/>
	<outline>
		<component base="cap"/>
		<component base="cap" yOffset="222"/>
		<contour>
			<point x="0" y="4" type="line"/>
			<point x="0" y="226" type="line"/>
			<point x="8" y="226" type="line"/>
			<point x="8" y="4" type="line"/>
		</contour>
	</outline>
</glyph>
<glyph name="_26" format="2">
	<unicode hex="011A"/>
	<unicode hex="006E"/>
	<advance width="25"/>
	<outline>
		<component base="cap"/>
		<component base="cap" yOffset="252"/>
		<contour>
			<point x="0" y="4" type="line"/>
			<point x="0" y="256" type="line"/>
			<point x="8" y="256" type="line"/>
			<point x="8" y="4" type="line"/>
		</contour>
	</outline>
</glyph>
<glyph name="_32" format="2">
	<unicode hex="0120"/>
	<unicode hex="0071"/>
	<advance width="25"/>
	<outline>
		<component base="cap"/>
		<component base="cap" yOffset="312"/>
		<contour>
			<point x="0" y="4" type="line"/>
			<point x="0" y="316" type="line"/>
			<point x="8" y="316" type="line"/>
			<point x="8" y="4" type="line"/>
		</contour>
	</outline>
</glyph>
<glyph name="_33" format="2">
	<unicode hex="0121"/>
	<advance width="25"/>
	<outline>
		<component base="cap"/>
		<component base="cap" yOffset="322"/>
		<contour>
			<point x="0" y="4" type="line"/>
			<point x="0" y="326" type="line"/>
			<point x="8" y="326" type="line"/>
			<point x="8" y="4" type="line"/>
		</contour>
	</outline>
</glyph>
<glyph name="_34" format="2">
	<unicode hex="0122"/>
	<unicode hex="0072"/>
	<advance width="25"/>
	<outline>
		<component base="cap"/>
		<component base="cap" yOffset="332"/>
		<contour>
			<point x="0" y="4" type="line"/>
			<point x="0" y="336" type="line"/>
			<point x="8" y="336" type="line"/>
			<point x="8" y="4" type="line"/>
		</contour>
	</outline>
</glyph>
<glyph name="_36" format="2">
	<unicode hex="0124"/>
	<unicode hex="0073"/>
	<advance width="25"/>
	<outline>
		<component base="cap"/>
		<component base="cap" yOffset="352"/>
		<contour>
			<point x="0" y="4" type="line"/>
			<point x="0" y="356" type="line"/>
			<point x="8" y="356" type="line"/>
			<point x="8" y="4" type="line"/>
		</contour>
	</outline>
</glyph>
<glyph name="_37" format="2">
	<unicode hex="0125"/>
	<advance width="25"/>
	<outline>
		<component base="cap"/>
		<component base="cap" yOffset="362"/>
		<contour>
			<point x="0" y="4" type="line"/>
			<point x="0" y="366" type="line"/>
			<point x="8" y="366" type="line"/>
			<point x="8" y="4" type="line"/>
		</contour>
	</outline>
</glyph>
<glyph name="_39" format="2">
	<unicode hex="0127"/>
	<advance width="25"/>
	<outline>
		<component base="cap"/>
		<component base="cap" yOffset="382"/>
		<contour>
			<point x="0" y="4" type="line"/>
			<point x="0" y="386" type="line"/>
			<point x="8" y="386" type="line"/>
			<point x="8" y="4" type="line"/>
		</contour>
	</outline>
</glyph>
<glyph name="_40" format="2">
	<unicode hex="0128"/>
	<unicode hex="0034"/>
	<unicode hex="0075"/>
	<advance width="25"/>
	<outline>
		<component base="cap"/>
		<component base="cap" yOffset="392"/>
		<contour>
			<point x="0" y="4" type="line"/>
			<point x="0" y="396" type="line"/>
			<point x="8" y="396" type="line"/>
			<point x="8" y="4" type="line"/>
		</contour>
	</outline>
</glyph>
<glyph name="_41" format="2">
	<unicode hex="0129"/>
	<advance width="25"/>
	<outline>
		<component base="cap"/>
		<component base="cap" yOffset="402"/>
		<contour>
			<point x="0" y="4" type="line"/>
			<point x="0" y="406" type="line"/>
			<point x="8" y="406" type="line"/>
			<point x="8" y="4" type="line"/>
		</contour>
	</outline>
</glyph>
<glyph name="_43" format="2">
	<unicode hex="012B"/>
	<advance width="25"/>
	<outline>
		<component base="cap"/>
		<component base="cap" yOffset="422"/>
		<contour>
			<point x="0" y="4" type="line"/>
			<point x="0" y="426" type="line"/>
			<point x="8" y="426" type="line"/>
			<point x="8" y="4" type="line"/>
		</contour>
	</outline>
</glyph>
<glyph name="_44" format="2">
	<unicode hex="012C"/>
	<unicode hex="0077"/>
	<advance width="25"/>
	<outline>
		<component base="cap"/>
		<component base="cap" yOffset="432"/>
		<contour>
			<point x="0" y="4" type="line"/>
			<point x="0" y="436" type="line"/>
			<point x="8" y="436" type="line"/>
			<point x="8" y="4" type="line"/>
		</contour>
	</outline>
</glyph>
<glyph name="_45" format="2">
	<unicode hex="012D"/>
	<advance width="25"/>
	<outline>
		<component base="cap"/>
		<component base="cap" yOffset="442"/>
		<contour>
			<point x="0" y="4" type="line"/>
			<point x="0" y="446" type="line"/>
			<point x="8" y="446" type="line"/>
			<point x="8" y="4" type="line"/>
		</contour>
	</outline>
</glyph>
<glyph name="_48" format="2">
	<unicode hex="0130"/>
	<unicode hex="0079"/>
	<advance width="25"/>
	<outline>
		<component base="cap"/>
		<component base="cap" yOffset="472"/>
		<contour>
			<point x="0" y="4" type="line"/>
			<point x="0" y="476" type="line"/>
			<point x="8" y="476" type="line"/>
			<point x="8" y="4" type="line"/>
		</contour>
	</outline>
</glyph>
<glyph name="_49" format="2">
	<unicode hex="0131"/>
	<advance width="25"/>
	<outline>
		<component base="cap"/>
		<component base="cap" yOffset="482"/>
		<contour>
			<point x="0" y="4" type="line"/>
			<point x="0" y="486" type="line"/>
			<point x="8" y="486" type="line"/>
			<point x="8" y="4" type="line"/>
		</contour>
	</outline>
</glyph>
<glyph name="_51" format="2">
	<unicode hex="0133"/>
	<advance width="25"/>
	<outline>
		<component base="cap"/>
		<component base="cap" yOffset="502"/>
		<contour>
			<point x="0" y="4" type="line"/>
			<point x="0" y="506" type="line"/>
			<point x="8" y="506" type="line"/>
			<point x="8" y="4" type="line"/>
		</contour>
	</outline>
</glyph>
<glyph name="_53" format="2">
	<unicode hex="0135"/>
	<advance width="25"/>
	<outline>
		<component base="cap"/>
		<component base="cap" yOffset="522"/>
		<contour>
			<point x="0" y="4" type="line"/>
			<point x="0" y="526" type="line"/>
			<point x="8" y="526" type="line"/>
			<point x="8" y="4" type="line"/>
		</contour>
	</outline>
</glyph>
<glyph name="_54" format="2">
	<unicode hex="0136"/>
	<unicode hex="0042"/>
	<advance width="25"/>
	<outline>
		<component base="cap"/>
		<component base="cap" yOffset="532"/>
		<contour>
			<point x="0" y="4" type="line"/>
			<point x="0" y="536" type="line"/>
			<point x="8" y="536" type="line"/>
			<point x="8" y="4" type="line"/>
		</contour>
	</outline>
</glyph>
<glyph name="_55" format="2">
	<unicode hex="0137"/>
	<advance width="25"/>
	<outline>
		<component base="cap"/>
		<component base="cap" yOffset="542"/>
		<contour>
			<point x="0" y="4" type="line"/>
			<point x="0" y="546" type="line"/>
			<point x="8" y="546" type="line"/>
			<point x="8" y="4" type="line"/>
		</contour>
	</outline>
</glyph>
<glyph name="_58" format="2">
	<unicode hex="013A"/>
	<unicode hex="0044"/>
	<advance width="25"/>
	<outline>
		<component base="cap"/>
		<component base="cap" yOffset="572"/>
		<contour>
			<point x="0" y="4" type="line"/>
			<point x="0" y="576" type="line"/>
			<point x="8" y="576" type="line"/>
			<point x="8" y="4" type="line"/>
		</contour>
	</outline>
</glyph>
<glyph name="_60" format="2">
	<unicode hex="013C"/>
	<unicode hex="0036"/>
	<unicode hex="0045"/>
	<advance width="25"/>
	<outline>
		<component base="cap"/>
		<component base="cap" yOffset="592"/>
		<contour>
			<point x="0" y="4" type="line"/>
			<point x="0" y="596" type="line"/>
			<point x="8" y="596" type="line"/>
			<point x="8" y="4" type="line"/>
		</contour>
	</outline>
</glyph>
<glyph name="_61" format="2">
	<unicode hex="013D"/>
	<advance width="25"/>
	<outline>
		<component base="cap"/>
		<component base="cap" yOffset="602"/>
		<contour>
			<point x="0" y="4" type="line"/>
			<point x="0" y="606" type="line"/>
			<point x="8" y="606" type="line"/>
			<point x="8" y="4" type="line"/>
		</contour>
	</outline>
</glyph>
<glyph name="_67" format="2">
	<unicode hex="0143"/>
	<advance width="25"/>
	<outline>
		<component base="cap"/>
		<component base="cap" yOffset="662"/>
		<contour>
			<point x="0" y="4" type="line"/>
			<point x="0" y="666" type="line"/>
			<point x="8" y="666" type="line"/>
			<point x="8" y="4" type="line"/>
		</contour>
	</outline>
</glyph>
<glyph name="_73" format="2">
	<unicode hex="0149"/>
	<advance width="25"/>
	<outline>
		<component base="cap"/>
		<component base="cap" yOffset="722"/>
		<contour>
			<point x="0" y="4" type="line"/>
			<point x="0" y="726" type="line"/>
			<point x="8" y="726" type="line"/>
			<point x="8" y="4" type="line"/>
		</contour>
	</outline>
</glyph>
<glyph name="_74" format="2">
	<unicode hex="014A"/>
	<unicode hex="004C"/>
	<advance width="25"/>
	<outline>
		<component base="cap"/>
		<component base="cap" yOffset="732"/>
		<contour>
			<point x="0" y="4" type="line"/>
			<point x="0" y="736" type="line"/>
			<point x="8" y="736" type="line"/>
			<point x="8" y="4" type="line"/>
		</contour>
	</outline>
</glyph>
<glyph name="_75" format="2">
	<unicode hex="014B"/>
	<advance width="25"/>
	<outline>
		<component base="cap"/>
		<component base="cap" yOffset="742"/>
		<contour>
			<point x="0" y="4" type="line"/>
			<point x="0" y="746" type="line"/>
			<point x="8" y="746" type="line"/>
			<point x="8" y="4" type="line"/>
		</contour>
	</outline>
</glyph>
<glyph name="_77" format="2">
	<unicode hex="014D"/>
	<advance width="25"/>
	<outline>
		<component base="cap"/>
		<component base="cap" yOffset="762"/>
		<contour>
			<point x="0" y="4" type="line"/>
			<point x="0" y="766" type="line"/>
			<point x="8" y="766" type="line"/>
			<point x="8" y="4" type="line"/>
		</contour>
	</outline>
</glyph>
<glyph name="_78" format="2">
	<unicode hex="014E"/>
	<unicode hex="004E"/>
	<advance width="25"/>
	<outline>
		<component base="cap"/>
		<component base="cap" yOffset="772"/>
		<contour>
			<point x="0" y="4" type="line"/>
			<point x="0" y="776" type="line"/>
			<point x="8" y="776" type="line"/>
			<point x="8" y="4" type="line"/>
		</contour>
	</outline>
</glyph>
<glyph name="_80" format="2">
	<unicode hex="0150"/>
	<unicode hex="0038"/>
	<unicode hex="004F"/>
	<advance width="25"/>
	<outline>
		<component base="cap"/>
		<component base="cap" yOffset="792"/>
		<contour>
			<point x="0" y="4" type="line"/>
			<point x="0" y="796" type="line"/>
			<point x="8" y="796" type="line"/>
			<point x="8" y="4" type="line"/>
		</contour>
	</outline>
</glyph>
<glyph name="_83" format="2">
	<unicode hex="0153"/>
	<advance width="25"/>
	<outline>
		<component base="cap"/>
		<component base="cap" yOffset="822"/>
		<contour>
			<point x="0" y="4" type="line"/>
			<point x="0" y="826" type="line"/>
			<point x="8" y="826" type="line"/>
			<point x="8" y="4" type="line"/>
		</contour>
	</outline>
</glyph>
<glyph name="_84" format="2">
	<unicode hex="0154"/>
	<unicode hex="0051"/>
	<advance width="25"/>
	<outline>
		<component base="cap"/>
		<component base="cap" yOffset="832"/>
		<contour>
			<point x="0" y="4" type="line"/>
			<point x="0" y="836" type="line"/>
			<point x="8" y="836" type="line"/>
			<point x="8" y="4" type="line"/>
		</contour>
	</outline>
</glyph>
<glyph name="_86" format="2">
	<unicode hex="0156"/>
	<unicode hex="2587"/>
	<unicode hex="0052"/>
	<advance width="25"/>
	<outline>
		<component base="cap"/>
		<component base="cap" yOffset="852"/>
		<contour>
			<point x="0" y="4" type="line"/>
			<point x="0" y="856" type="line"/>
			<point x="8" y="856" type="line"/>
			<point x="8" y="4" type="line"/>
		</contour>
	</outline>
</glyph>
<glyph name="_87" format="2">
	<unicode hex="0157"/>
	<advance width="25"/>
	<outline>
		<component base="cap"/>
		<component base="cap" yOffset="862"/>
		<contour>
			<point x="0" y="4" type="line"/>
			<point x="0" y="866" type="line"/>
			<point x="8" y="866" type="line"/>
			<point x="8" y="4" type="line"/>
		</contour>
	</outline>
</glyph>
<glyph name="_89" format="2">
	<unicode hex="0159"/>
	<advance width="25"/>
	<outline>
		<component base="cap"/>
		<component base="cap" yOffset="882"/>
		<contour>
			<point x="0" y="4" type="line"/>
			<point x="0" y="886" type="line"/>
			<point x="8" y="886" type="line"/>
			<point x="8" y="4" type="line"/>
		</contour>
	</outline>
</glyph>
<glyph name="_91" format="2">
	<unicode hex="015B"/>
	<advance width="25"/>
	<outline>
		<component base="cap"/>
		<component base="cap" yOffset="902"/>
		<contour>
			<point x="0" y="4" type="line"/>
			<point x="0" y="906" type="line"/>
			<point x="8" y="906" type="line"/>
			<point x="8" y="4" type="line"/>
		</contour>
	</outline>
</glyph>
<glyph name="_92" format="2">
	<unicode hex="015C"/>
	<unicode hex="0055"/>
	<advance width="25"/>
	<outline>
		<component base="cap"/>
		<component base="cap" yOffset="912"/>
		<contour>
			<point x="0" y="4" type="line"/>
			<point x="0" y="916" type="line"/>
			<point x="8" y="916" type="line"/>
			<point x="8" y="4" type="line"/>
		</contour>
	</outline>
</glyph>
<glyph name="_97" format="2">
	<unicode hex="0161"/>
	<advance width="25"/>
	<outline>
		<component base="cap"/>
		<component base="cap" yOffset="962"/>
		<contour>
			<point x="0" y="4" type="line"/>
			<point x="0" y="966" type="line"/>
			<point x="8" y="966" type="line"/>
			<point x="8" y="4" type="line"/>
		</contour>
	</outline>
</glyph>
<glyph name="_110" format="2">
	<unicode hex="016E"/>
	<advance width="25"/>
	<outline>
		<component base="cap"/>
		<component base="cap" yOffset="1092"/>
		<contour>
			<point x="0" y="4" type="line"/>
			<point x="0" y="1096" type="line"/>
			<point x="8" y="1096" type="line"/>
			<point x="8" y="4" type="line"/>
		</contour>
	</outline>
</glyph>
<glyph name="_114" format="2">
	<unicode hex="0172"/>
	<advance width="25"/>
	<outline>
		<component base="cap"/>
		<component base="cap" yOffset="1132"/>
		<contour>
			<point x="0" y="4" type="line"/>
			<point x="0" y="1136" type="line"/>
			<point x="8" y="1136" type="line"/>
			<point x="8" y="4" type="line"/>
		</contour>
	</outline>
</glyph>
<glyph name="_115" format="2">
	<unicode hex="0173"/>
	<advance width="25"/>
	<outline>
		<component base="cap"/>
		<component base="cap" yOffset="1142"/>
		<contour>
			<point x="0" y="4" type="line"/>
			<point x="0" y="1146" type="line"/>
			<point x="8" y="1146" type="line"/>
			<point x="8" y="4" type="line"/>
		</contour>
	</outline>
</glyph>
<glyph name="_121" format="2">
	<unicode hex="0179"/>
	<advance width="25"/>
	<outline>
		<component base="cap"/>
		<component base="cap" yOffset="1202"/>
		<contour>
			<point x="0" y="4" type="line"/>
			<point x="0" y="1206" type="line"/>
			<point x="8" y="1206" type="line"/>
			<point x="8" y="4" type="line"/>
		</contour>
	</outline>
</glyph>
<glyph name="_127" format="2">
	<unicode hex="017F"/>
	<advance width="25"/>
	<outline>
		<component base="cap"/>
		<component base="cap" yOffset="1262"/>
		<contour>
			<point x="0" y="4" type="line"/>
			<point x="0" y="1266" type="line"/>
			<point x="8" y="1266" type="line"/>
			<point x="8" y="4" type="line"/>
		</contour>
	</outline>
</glyph>
<glyph name="_11.clip" format="2">
	<advance width="25"/>
	<outline>
		<contour>
			<point x="0" y="85.25"/>
			<point x="24.75" y="110"/>
			<point x="55" y="110" type="curve" smooth="yes"/>
			<point x="-47" y="110" type="line"/>
			<point x="-16.75" y="110"/>
			<point x="8" y="85.25"/>
			<point x="8" y="55" type="curve" smooth="yes"/>
			<point x="8" y="55" type="line"/>
			<point x="8" y="24.75"/>
			<point x="-16.75" y="0"/>
			<point x="-47" y="0" type="curve" smooth="yes"/>
			<point x="55" y="0" type="line"/>
			<point x="24.75" y="0"/>
			<point x="0" y="24.75"/>
			<point x="0" y="55" type="curve" smooth="yes"/>
			<point x="0" y="55" type="line"/>
		</contour>
	</outline>
</glyph>
<glyph name="_12.clip" format="2">
	<advance width="25"/>
	<outline>
		<contour>
			<point x="0" y="93"/>
			<point x="26" y="120"/>
			<point x="60" y="120" type="curve" smooth="yes"/>
			<point x="-52" y="120" type="line"/>
			<point x="-18" y="120"/>
			<point x="8" y="93"/>
			<point x="8" y="60" type="curve" smooth="yes"/>
			<point x="8" y="60" type="line"/>
			<point x="8" y="26"/>
			<point x="-18" y="0"/>
			<point x="-52" y="0" type="curve" smooth="yes"/>
			<point x="60" y="0" type="line"/>
			<point x="26" y="0"/>
			<point x="0" y="26"/>
			<point x="0" y="60" type="curve" smooth="yes"/>
			<point x="0" y="60" type="line"/>
		</contour>
	</outline>
</glyph>
<glyph name="_16.clip" format="2">
	<advance width="25"/>
	<outline>
		<contour>
			<point x="0" y="124"/>
			<point x="36" y="160"/>
			<point x="80" y="160" type="curve" smooth="yes"/>
			<point x="-72" y="160" type="line"/>
			<point x="-28" y="160"/>
			<point x="8" y="124"/>
			<point x="8" y="80" type="curve" smooth="yes"/>
			<point x="8" y="80" type="line"/>
			<point x="8" y="36"/>
			<point x="-28" y="0"/>
			<point x="-72" y="0" type="curve" smooth="yes"/>
			<point x="80" y="0" type="line"/>
			<point x="36" y="0"/>
			<point x="0" y="36"/>
			<point x="0" y="80" type="curve" smooth="yes"/>
			<point x="0" y="80" type="line"/>
		</contour>
	</outline>
</glyph>
<glyph name="_19.clip" format="2">
	<advance width="25"/>
	<outline>
		<contour>
			<point x="0" y="147.25"/>
			<point x="42.75" y="190"/>
			<point x="95" y="190" type="curve" smooth="yes"/>
			<point x="-87" y="190" type="line"/>
			<point x="-34.75" y="190"/>
			<point x="8" y="147.25"/>
			<point x="8" y="95" type="curve" smooth="yes"/>
			<point x="8" y="95" type="line"/>
			<point x="8" y="42.75"/>
			<point x="-34.75" y="0"/>
			<point x="-87" y="0" type="curve" smooth="yes"/>
			<point x="95" y="0" type="line"/>
			<point x="42.75" y="0"/>
			<point x="0" y="42.75"/>
			<point x="0" y="95" type="curve" smooth="yes"/>
			<point x="0" y="95" type="line"/>
		</contour>
	</outline>
</glyph>
<glyph name="_2.clip" format="2">
	<advance width="25"/>
	<outline>
		<contour>
			<point x="0" y="15.5"/>
			<point x="4.5" y="20"/>
			<point x="10" y="20" type="curve" smooth="yes"/>
			<point x="-2" y="20" type="line"/>
			<point x="3.5" y="20"/>
			<point x="8" y="15.5"/>
			<point x="8" y="10" type="curve" smooth="yes"/>
			<point x="8" y="10" type="line"/>
			<point x="8" y="4.5"/>
			<point x="3.5" y="0"/>
			<point x="-2" y="0" type="curve" smooth="yes"/>
			<point x="10" y="0" type="line"/>
			<point x="4.5" y="0"/>
			<point x="0" y="4.5"/>
			<point x="0" y="10" type="curve" smooth="yes"/>
			<point x="0" y="10" type="line"/>
		</contour>
	</outline>
</glyph>
<glyph name="_22.clip" format="2">
	<advance width="25"/>
	<outline>
		<contour>
			<point x="0" y="170.5"/>
			<point x="49.5" y="220"/>
			<point x="110" y="220" type="curve" smooth="yes"/>
			<point x="-102" y="220" type="line"/>
			<point x="-41.5" y="220"/>
			<point x="8" y="170.5"/>
			<point x="8" y="110" type="curve" smooth="yes"/>
			<point x="8" y="110" type="line"/>
			<point x="8" y="49.5"/>
			<point x="-41.5" y="0"/>
			<point x="-102" y="0" type="curve" smooth="yes"/>
			<point x="110" y="0" type="line"/>
			<point x="49.5" y="0"/>
			<point x="0" y="49.5"/>
			<point x="0" y="110" type="curve" smooth="yes"/>
			<point x="0" y="110" type="line"/>
		</contour>
	</outline>
</glyph>
<glyph name="_23.clip" format="2">
	<advance width="25"/>
	<outline>
		<contour>
			<point x="0" y="178.25"/>
			<point x="51.75" y="230"/>
			<point x="115" y="230" type="curve" smooth="yes"/>
			<point x="-107" y="230" type="line"/>
			<point x="-43.75" y="230"/>
			<point x="8" y="178.25"/>
			<point x="8" y="115" type="curve" smooth="yes"/>
			<point x="8" y="115" type="line"/>
			<point x="8" y="51.75"/>
			<point x="-43.75" y="0"/>
			<point x="-107" y="0" type="curve" smooth="yes"/>
			<point x="115" y="0" type="line"/>
			<point x="51.75" y="0"/>
			<point x="0" y="51.75"/>
			<point x="0" y="115" type="curve" smooth="yes"/>
			<point x="0" y="115" type="line"/>
		</contour>
	</outline>
</glyph>
<glyph name="_24.clip" format="2">
	<advance width="25"/>
	<outline>
		<contour>
			<point x="0" y="186"/>
			<point x="53" y="240"/>
			<point x="120" y="240" type="curve" smooth="yes"/>
			<point x="-112" y="240" type="line"/>
			<point x="-45" y="240"/>
			<point x="8" y="186"/>
			<point x="8" y="120" type="curve" smooth="yes"/>
			<point x="8" y="120" type="line"/>
			<point x="8" y="53"/>
			<point x="-45" y="0"/>
			<point x="-112" y="0" type="curve" smooth="yes"/>
			<point x="120" y="0" type="line"/>
			<point x="53" y="0"/>
			<point x="0" y="53"/>
			<point x="0" y="120" type="curve" smooth="yes"/>
			<point x="0" y="120" type="line"/>
		</contour>
	</outline>
</glyph>
<glyph name="_5.clip" format="2">
	<advance width="25"/>
	<outline>
		<contour>
			<point x="0" y="38.75"/>
			<point x="11.25" y="50"/>
			<point x="25" y="50" type="curve" smooth="yes"/>
			<point x="-17" y="50" type="line"/>
			<point x="-3.25" y="50"/>
			<point x="8" y="38.75"/>
			<point x="8" y="25" type="curve" smooth="yes"/>
			<point x="8" y="25" type="line"/>
			<point x="8" y="11.25"/>
			<point x="-3.25" y="0"/>
			<point x="-17" y="0" type="curve" smooth="yes"/>
			<point x="25" y="0" type="line"/>
			<point x="11.25" y="0"/>
			<point x="0" y="11.25"/>
			<point x="0" y="25" type="curve" smooth="yes"/>
			<point x="0" y="25" type="line"/>
		</contour>
	</outline>
</glyph>
<glyph name="_6.clip" format="2">
	<advance width="25"/>
	<outline>
		<contour>
			<point x="0" y="46.5"/>
			<point x="13.5" y="60"/>
			<point x="30" y="60" type="curve" smooth="yes"/>
			<point x="-22" y="60" type="line"/>
			<point x="-5.5" y="60"/>
			<point x="8" y="46.5"/>
			<point x="8" y="30" type="curve" smooth="yes"/>
			<point x="8" y="30" type="line"/>
			<point x="8" y="13.5"/>
			<point x="-5.5" y="0"/>
			<point x="-22" y="0" type="curve" smooth="yes"/>
			<point x="30" y="0" type="line"/>
			<point x="13.5" y="0"/>
			<point x="0" y="13.5"/>
			<point x="0" y="30" type="curve" smooth="yes"/>
			<point x="0" y="30" type="line"/>
		</contour>
	</outline>
</glyph>
<glyph name="_7.clip" format="2">
	<advance width="25"/>
	<outline>
		<contour>
			<point x="0" y="54.25"/>
			<point x="15.75" y="70"/>
			<point x="35" y="70" type="curve" smooth="yes"/>
			<point x="-27" y="70" type="line"/>
			<point x="-7.75" y="70"/>
			<point x="8" y="54.25"/>
			<point x="8" y="35" type="curve" smooth="yes"/>
			<point x="8" y="35" type="line"/>
			<point x="8" y="15.75"/>
			<point x="-7.75" y="0"/>
			<point x="-27" y="0" type="curve" smooth="yes"/>
			<point x="35" y="0" type="line"/>
			<point x="15.75" y="0"/>
			<point x="0" y="15.75"/>
			<point x="0" y="35" type="curve" smooth="yes"/>
			<point x="0" y="35" type="line"/>
		</contour>
	</outline>
</glyph>
<glyph name="_9.clip" format="2">
	<advance width="25"/>
	<outline>
		<contour>
			<point x="0" y="69.75"/>
			<point x="20.25" y="90"/>
			<point x="45" y="90" type="curve" smooth="yes"/>
			<point x="-37" y="90" type="line"/>
			<point x="-12.25" y="90"/>
			<point x="8" y="69.75"/>
			<point x="8" y="45" type="curve" smooth="yes"/>
			<point x="8" y="45" type="line"/>
			<point x="8" y="20.25"/>
			<point x="-12.25" y="0"/>
			<point x="-37" y="0" type="curve" smooth="yes"/>
			<point x="45" y="0" type="line"/>
			<point x="20.25" y="0"/>
			<point x="0" y="20.25"/>
			<point x="0" y="45" type="curve" smooth="yes"/>
			<point x="0" y="45" type="line"/>
		</contour>
	</outline>
</glyph>
